<?xml version="1.0" encoding="UTF-8" standalone="no"?>
<svg width="21px" height="21px" viewBox="0 0 21 21" version="1.1" xmlns="http://www.w3.org/2000/svg" xmlns:xlink="http://www.w3.org/1999/xlink">
    <!-- Generator: Sketch 39.1 (31720) - http://www.bohemiancoding.com/sketch -->
    <title>Facebook</title>
    <desc>Created with Sketch.</desc>
    <defs></defs>
    <g id="ReHome---Landing-Page" stroke="none" stroke-width="1" fill="none" fill-rule="evenodd">
        <g id="Landing-Page-v3.3" transform="translate(-153.000000, -4574.000000)" fill="#FFFFFF">
            <g id="Group-33" transform="translate(0.000000, 4212.000000)">
                <g id="Group-19">
                    <g id="Group-10" transform="translate(153.000000, 362.000000)">
                        <path d="M21,19.8410558 C21,20.4811637 20.4811637,21 19.8410558,21 L14.4896625,21 L14.4896625,12.8673695 L17.2194165,12.8673695 L17.628422,9.69829207 L14.4896625,9.69829207 L14.4896625,7.67500204 C14.4896625,6.75745689 14.7447904,6.13164991 16.0604723,6.13164991 L17.7388249,6.13107788 L17.7388249,3.29664133 C17.4482308,3.25774291 16.4523167,3.17136553 15.2933726,3.17136553 C12.8736618,3.17136553 11.2170467,4.64836153 11.2170467,7.36095448 L11.2170467,9.69829207 L8.48042821,9.69829207 L8.48042821,12.8673695 L11.2170467,12.8673695 L11.2170467,21 L1.15894419,21 C0.518836316,21 0,20.4811637 0,19.8410558 L0,1.15894419 C0,0.518836316 0.518836316,0 1.15894419,0 L19.8410558,0 C20.4811637,0 21,0.518836316 21,1.15894419 L21,19.8410558" id="Facebook"></path>
                    </g>
                </g>
            </g>
        </g>
    </g>
</svg>